<svg xmlns="http://www.w3.org/2000/svg" width="1920" height="368.877" viewBox="0 0 1920 368.877">
  <g id="Landscape" transform="translate(0 -711.574)">
    <path id="Path_4" data-name="Path 4" d="M0-49.608S480.079-149.886,960.079-149.886,1920-49.608,1920-49.608V49.463H0Z" transform="translate(0 1030.988)" fill="#33353e"/>
    <path id="building-solid" d="M123.619,136.094h-5.671V6.8a6.8,6.8,0,0,0-6.8-6.8H15.878a6.8,6.8,0,0,0-6.8,6.8v129.29H3.4A3.4,3.4,0,0,0,0,139.5v5.671H127.021V139.5A3.4,3.4,0,0,0,123.619,136.094ZM36.292,21.548a3.4,3.4,0,0,1,3.4-3.4H51.035a3.4,3.4,0,0,1,3.4,3.4V32.889a3.4,3.4,0,0,1-3.4,3.4H39.694a3.4,3.4,0,0,1-3.4-3.4Zm0,27.219a3.4,3.4,0,0,1,3.4-3.4H51.035a3.4,3.4,0,0,1,3.4,3.4V60.108a3.4,3.4,0,0,1-3.4,3.4H39.694a3.4,3.4,0,0,1-3.4-3.4ZM51.035,90.73H39.694a3.4,3.4,0,0,1-3.4-3.4V75.986a3.4,3.4,0,0,1,3.4-3.4H51.035a3.4,3.4,0,0,1,3.4,3.4V87.327A3.4,3.4,0,0,1,51.035,90.73Zm21.548,45.365H54.438V112.278a3.4,3.4,0,0,1,3.4-3.4H69.181a3.4,3.4,0,0,1,3.4,3.4ZM90.73,87.327a3.4,3.4,0,0,1-3.4,3.4H75.986a3.4,3.4,0,0,1-3.4-3.4V75.986a3.4,3.4,0,0,1,3.4-3.4H87.327a3.4,3.4,0,0,1,3.4,3.4Zm0-27.219a3.4,3.4,0,0,1-3.4,3.4H75.986a3.4,3.4,0,0,1-3.4-3.4V48.767a3.4,3.4,0,0,1,3.4-3.4H87.327a3.4,3.4,0,0,1,3.4,3.4Zm0-27.219a3.4,3.4,0,0,1-3.4,3.4H75.986a3.4,3.4,0,0,1-3.4-3.4V21.548a3.4,3.4,0,0,1,3.4-3.4H87.327a3.4,3.4,0,0,1,3.4,3.4Z" transform="translate(267.889 791.005) rotate(-8)" fill="#33353e"/>
    <path id="tree-solid" d="M99.21,99.248,78.26,75.519h8.032a5.959,5.959,0,0,0,5.449-3.425,5.781,5.781,0,0,0-.86-6.307L70.393,41.952h7.576a5.942,5.942,0,0,0,5.47-3.569,5.835,5.835,0,0,0-1.112-6.315L53.41,1.261a4.319,4.319,0,0,0-6.115,0L18.376,32.069a5.84,5.84,0,0,0-1.112,6.315,5.945,5.945,0,0,0,5.473,3.569h7.576L9.821,65.792a5.789,5.789,0,0,0-.858,6.3,5.958,5.958,0,0,0,5.449,3.422h8.032L1.5,99.248a5.8,5.8,0,0,0-.934,6.362,6.082,6.082,0,0,0,5.51,3.475h35.89V115.5l-7.943,12.692a4.2,4.2,0,0,0,3.753,6.073H62.935a4.2,4.2,0,0,0,3.753-6.073L58.744,115.5v-6.412h35.89a6.082,6.082,0,0,0,5.51-3.475A5.8,5.8,0,0,0,99.21,99.248Z" transform="translate(108.114 826.068) rotate(-9)" fill="#33353e"/>
    <path id="tree-solid-2" data-name="tree-solid" d="M99.21,99.248,78.26,75.519h8.032a5.959,5.959,0,0,0,5.449-3.425,5.781,5.781,0,0,0-.86-6.307L70.393,41.952h7.576a5.942,5.942,0,0,0,5.47-3.569,5.835,5.835,0,0,0-1.112-6.315L53.41,1.261a4.319,4.319,0,0,0-6.115,0L18.376,32.069a5.84,5.84,0,0,0-1.112,6.315,5.945,5.945,0,0,0,5.473,3.569h7.576L9.821,65.792a5.789,5.789,0,0,0-.858,6.3,5.958,5.958,0,0,0,5.449,3.422h8.032L1.5,99.248a5.8,5.8,0,0,0-.934,6.362,6.082,6.082,0,0,0,5.51,3.475h35.89V115.5l-7.943,12.692a4.2,4.2,0,0,0,3.753,6.073H62.935a4.2,4.2,0,0,0,3.753-6.073L58.744,115.5v-6.412h35.89a6.082,6.082,0,0,0,5.51-3.475A5.8,5.8,0,0,0,99.21,99.248Z" transform="translate(1654.843 806.924) rotate(9)" fill="#33353e"/>
    <path id="truck-solid" d="M110.109,62.113h-2.823V43.038a8.47,8.47,0,0,0-2.488-5.982L87.169,19.428a8.47,8.47,0,0,0-5.982-2.488H73.406V8.47A8.472,8.472,0,0,0,64.936,0H8.47A8.472,8.472,0,0,0,0,8.47V64.936a8.472,8.472,0,0,0,8.47,8.47h2.823a16.94,16.94,0,0,0,33.88,0H67.759a16.94,16.94,0,0,0,33.88,0h8.47a2.832,2.832,0,0,0,2.823-2.823V64.936A2.832,2.832,0,0,0,110.109,62.113ZM28.233,81.876a8.47,8.47,0,1,1,8.47-8.47A8.472,8.472,0,0,1,28.233,81.876Zm56.466,0a8.47,8.47,0,1,1,8.47-8.47A8.472,8.472,0,0,1,84.7,81.876Zm14.117-36.7H73.406V25.41h7.782L98.816,43.038Z" transform="matrix(0.996, 0.087, -0.087, 0.996, 1417.686, 818.382)" fill="#33353e"/>
    <g id="House">
      <path id="Path_5" data-name="Path 5" d="M761.1-143.906c13.5-.527,78.031-3.989,91.775-4.389,35.518-1.032,107.206-1.591,107.206-1.591v82.838s-1.493,0-2.524-.009C833.805-67.553,778.783-110.01,761.1-143.906Z" transform="translate(2 1029.988)" fill="#fff"/>
      <path id="Path_6" data-name="Path 6" d="M1010.079-143.906c-13.5-.527-77.031-3.989-90.775-4.389-35.518-1.032-107.206-1.591-107.206-1.591v82.838s1.493,0,2.524-.009C929.366-67.208,992.393-110.01,1010.079-143.906Z" transform="translate(145.902 1029.988)" fill="#fff"/>
      <path id="home-solid" d="M109.853,77.586l-72.245,59.5v64.22a6.27,6.27,0,0,0,6.27,6.27l43.91-.114a6.27,6.27,0,0,0,6.238-6.27v-37.5a6.27,6.27,0,0,1,6.27-6.27h25.078a6.27,6.27,0,0,1,6.27,6.27v37.476a6.27,6.27,0,0,0,6.27,6.289l43.895.121a6.27,6.27,0,0,0,6.27-6.27V137.045L115.848,77.586a4.777,4.777,0,0,0-6,0ZM223.97,118.029l-32.758-27V36.752a4.7,4.7,0,0,0-4.7-4.7H164.566a4.7,4.7,0,0,0-4.7,4.7V65.2L124.782,36.341a18.809,18.809,0,0,0-23.9,0L1.691,118.029a4.7,4.7,0,0,0-.627,6.622L11.056,136.8a4.7,4.7,0,0,0,6.626.639l92.17-75.916a4.777,4.777,0,0,1,6,0l92.174,75.916a4.7,4.7,0,0,0,6.622-.627l9.992-12.147a4.7,4.7,0,0,0-.666-6.634Z" transform="translate(847.155 679.524)" fill="#fff"/>
    </g>
  </g>
</svg>
